<mxfile host="Electron" modified="2023-11-21T15:59:21.943Z" agent="Mozilla/5.0 (Windows NT 10.0; Win64; x64) AppleWebKit/537.36 (KHTML, like Gecko) draw.io/22.1.2 Chrome/114.0.5735.289 Electron/25.9.4 Safari/537.36" etag="xsFnpEloZZTNtfxFOnAv" version="22.1.2" type="device">
  <diagram id="TfoB6S_6b5dlYbnaJkUQ" name="Page-2">
    <mxGraphModel dx="2343" dy="1077" grid="1" gridSize="10" guides="1" tooltips="1" connect="1" arrows="1" fold="1" page="1" pageScale="1" pageWidth="850" pageHeight="1100" math="0" shadow="0">
      <root>
        <mxCell id="0" />
        <mxCell id="1" parent="0" />
        <mxCell id="UncGNPjrXICpwuo8MPwS-2" value="&lt;font face=&quot;Comic Sans MS&quot;&gt;&lt;span style=&quot;font-size: 14px;&quot;&gt;Initial Interface&lt;/span&gt;&lt;/font&gt;" style="rounded=1;whiteSpace=wrap;html=1;arcSize=40;fontColor=#000000;fillColor=#ffffc0;strokeColor=#ff0000;" vertex="1" parent="1">
          <mxGeometry x="360" y="150" width="120" height="40" as="geometry" />
        </mxCell>
        <mxCell id="UncGNPjrXICpwuo8MPwS-3" value="" style="edgeStyle=orthogonalEdgeStyle;html=1;verticalAlign=bottom;endArrow=open;endSize=8;strokeColor=#ff0000;rounded=0;" edge="1" source="UncGNPjrXICpwuo8MPwS-2" parent="1">
          <mxGeometry relative="1" as="geometry">
            <mxPoint x="420" y="260" as="targetPoint" />
          </mxGeometry>
        </mxCell>
        <mxCell id="FVhCC5InrIl5w0bley2e-1" value="" style="shape=line;html=1;strokeWidth=6;strokeColor=#ff0000;" vertex="1" parent="1">
          <mxGeometry x="280" y="260" width="280" height="10" as="geometry" />
        </mxCell>
        <mxCell id="hmG4VE8EK8TRlpOZSHPz-6" style="edgeStyle=orthogonalEdgeStyle;shape=connector;rounded=0;orthogonalLoop=1;jettySize=auto;html=1;exitX=0.5;exitY=1;exitDx=0;exitDy=0;entryX=0.5;entryY=0;entryDx=0;entryDy=0;labelBackgroundColor=default;strokeColor=#ff0000;align=center;verticalAlign=bottom;fontFamily=Helvetica;fontSize=11;fontColor=default;endArrow=open;endSize=8;" edge="1" parent="1" source="WFWqncz-rybT5P159iqh-1" target="hmG4VE8EK8TRlpOZSHPz-2">
          <mxGeometry relative="1" as="geometry" />
        </mxCell>
        <mxCell id="WFWqncz-rybT5P159iqh-1" value="&lt;font face=&quot;Comic Sans MS&quot;&gt;&lt;span style=&quot;font-size: 14px;&quot;&gt;Login&lt;/span&gt;&lt;/font&gt;" style="rounded=1;whiteSpace=wrap;html=1;arcSize=40;fontColor=#000000;fillColor=#ffffc0;strokeColor=#ff0000;" vertex="1" parent="1">
          <mxGeometry x="280" y="360" width="120" height="40" as="geometry" />
        </mxCell>
        <mxCell id="1NjE5JEm-nomMFo2xGV1-7" style="edgeStyle=orthogonalEdgeStyle;shape=connector;rounded=0;orthogonalLoop=1;jettySize=auto;html=1;exitX=0.5;exitY=1;exitDx=0;exitDy=0;entryX=0.5;entryY=0;entryDx=0;entryDy=0;labelBackgroundColor=default;strokeColor=#ff0000;align=center;verticalAlign=bottom;fontFamily=Helvetica;fontSize=11;fontColor=default;endArrow=open;endSize=8;" edge="1" parent="1" source="WFWqncz-rybT5P159iqh-2" target="1NjE5JEm-nomMFo2xGV1-6">
          <mxGeometry relative="1" as="geometry" />
        </mxCell>
        <mxCell id="WFWqncz-rybT5P159iqh-2" value="&lt;font face=&quot;Comic Sans MS&quot;&gt;&lt;span style=&quot;font-size: 14px;&quot;&gt;Register&lt;/span&gt;&lt;/font&gt;" style="rounded=1;whiteSpace=wrap;html=1;arcSize=40;fontColor=#000000;fillColor=#ffffc0;strokeColor=#ff0000;" vertex="1" parent="1">
          <mxGeometry x="440" y="360" width="120" height="40" as="geometry" />
        </mxCell>
        <mxCell id="vqycpy5isV2sfPJ6O9fU-3" value="" style="edgeStyle=orthogonalEdgeStyle;html=1;verticalAlign=bottom;endArrow=open;endSize=8;strokeColor=#ff0000;rounded=0;entryX=0.5;entryY=0;entryDx=0;entryDy=0;" edge="1" parent="1" target="WFWqncz-rybT5P159iqh-1">
          <mxGeometry relative="1" as="geometry">
            <mxPoint x="339.47" y="340" as="targetPoint" />
            <mxPoint x="339.47" y="270" as="sourcePoint" />
          </mxGeometry>
        </mxCell>
        <mxCell id="vqycpy5isV2sfPJ6O9fU-4" value="" style="edgeStyle=orthogonalEdgeStyle;html=1;verticalAlign=bottom;endArrow=open;endSize=8;strokeColor=#ff0000;rounded=0;entryX=0.421;entryY=-0.039;entryDx=0;entryDy=0;entryPerimeter=0;" edge="1" parent="1" target="WFWqncz-rybT5P159iqh-2">
          <mxGeometry relative="1" as="geometry">
            <mxPoint x="490" y="350" as="targetPoint" />
            <mxPoint x="490" y="270" as="sourcePoint" />
          </mxGeometry>
        </mxCell>
        <mxCell id="1NjE5JEm-nomMFo2xGV1-31" style="edgeStyle=orthogonalEdgeStyle;shape=connector;rounded=0;orthogonalLoop=1;jettySize=auto;html=1;exitX=0;exitY=0.5;exitDx=0;exitDy=0;entryX=1;entryY=0.5;entryDx=0;entryDy=0;labelBackgroundColor=default;strokeColor=#ff0000;align=center;verticalAlign=bottom;fontFamily=Helvetica;fontSize=11;fontColor=default;endArrow=open;endSize=8;" edge="1" parent="1" source="vqycpy5isV2sfPJ6O9fU-5" target="1NjE5JEm-nomMFo2xGV1-1">
          <mxGeometry relative="1" as="geometry" />
        </mxCell>
        <mxCell id="1NjE5JEm-nomMFo2xGV1-37" style="edgeStyle=orthogonalEdgeStyle;shape=connector;rounded=0;orthogonalLoop=1;jettySize=auto;html=1;exitX=0.5;exitY=1;exitDx=0;exitDy=0;entryX=0.5;entryY=0;entryDx=0;entryDy=0;labelBackgroundColor=default;strokeColor=#ff0000;align=center;verticalAlign=bottom;fontFamily=Helvetica;fontSize=11;fontColor=default;endArrow=open;endSize=8;" edge="1" parent="1" source="vqycpy5isV2sfPJ6O9fU-5" target="1NjE5JEm-nomMFo2xGV1-35">
          <mxGeometry relative="1" as="geometry" />
        </mxCell>
        <mxCell id="vqycpy5isV2sfPJ6O9fU-5" value="&lt;font size=&quot;3&quot; face=&quot;Comic Sans MS&quot;&gt;Condition&lt;/font&gt;" style="rhombus;whiteSpace=wrap;html=1;fontColor=#000000;fillColor=#ffffc0;strokeColor=#ff0000;" vertex="1" parent="1">
          <mxGeometry x="290" y="600" width="100" height="40" as="geometry" />
        </mxCell>
        <mxCell id="hmG4VE8EK8TRlpOZSHPz-7" style="edgeStyle=orthogonalEdgeStyle;shape=connector;rounded=0;orthogonalLoop=1;jettySize=auto;html=1;exitX=0.5;exitY=1;exitDx=0;exitDy=0;entryX=0.5;entryY=0;entryDx=0;entryDy=0;labelBackgroundColor=default;strokeColor=#ff0000;align=center;verticalAlign=bottom;fontFamily=Helvetica;fontSize=11;fontColor=default;endArrow=open;endSize=8;" edge="1" parent="1" source="hmG4VE8EK8TRlpOZSHPz-2" target="hmG4VE8EK8TRlpOZSHPz-3">
          <mxGeometry relative="1" as="geometry" />
        </mxCell>
        <mxCell id="hmG4VE8EK8TRlpOZSHPz-2" value="&lt;font face=&quot;Comic Sans MS&quot;&gt;&lt;span style=&quot;font-size: 14px;&quot;&gt;Enter Username&lt;/span&gt;&lt;/font&gt;" style="rounded=1;whiteSpace=wrap;html=1;arcSize=40;fontColor=#000000;fillColor=#ffffc0;strokeColor=#ff0000;" vertex="1" parent="1">
          <mxGeometry x="280" y="440" width="120" height="40" as="geometry" />
        </mxCell>
        <mxCell id="hmG4VE8EK8TRlpOZSHPz-9" style="edgeStyle=orthogonalEdgeStyle;shape=connector;rounded=0;orthogonalLoop=1;jettySize=auto;html=1;exitX=0.5;exitY=1;exitDx=0;exitDy=0;labelBackgroundColor=default;strokeColor=#ff0000;align=center;verticalAlign=bottom;fontFamily=Helvetica;fontSize=11;fontColor=default;endArrow=open;endSize=8;" edge="1" parent="1" source="hmG4VE8EK8TRlpOZSHPz-3">
          <mxGeometry relative="1" as="geometry">
            <mxPoint x="340.4000000000001" y="600" as="targetPoint" />
          </mxGeometry>
        </mxCell>
        <mxCell id="hmG4VE8EK8TRlpOZSHPz-3" value="&lt;font face=&quot;Comic Sans MS&quot;&gt;&lt;span style=&quot;font-size: 14px;&quot;&gt;Enter Password&lt;/span&gt;&lt;/font&gt;" style="rounded=1;whiteSpace=wrap;html=1;arcSize=40;fontColor=#000000;fillColor=#ffffc0;strokeColor=#ff0000;" vertex="1" parent="1">
          <mxGeometry x="280" y="520" width="120" height="40" as="geometry" />
        </mxCell>
        <mxCell id="1NjE5JEm-nomMFo2xGV1-33" style="edgeStyle=orthogonalEdgeStyle;shape=connector;rounded=0;orthogonalLoop=1;jettySize=auto;html=1;exitX=0.5;exitY=0;exitDx=0;exitDy=0;labelBackgroundColor=default;strokeColor=#ff0000;align=center;verticalAlign=bottom;fontFamily=Helvetica;fontSize=11;fontColor=default;endArrow=open;endSize=8;entryX=0;entryY=0.5;entryDx=0;entryDy=0;" edge="1" parent="1" source="1NjE5JEm-nomMFo2xGV1-1" target="UncGNPjrXICpwuo8MPwS-2">
          <mxGeometry relative="1" as="geometry">
            <mxPoint x="140" y="167" as="targetPoint" />
            <Array as="points">
              <mxPoint x="140" y="170" />
            </Array>
          </mxGeometry>
        </mxCell>
        <mxCell id="1NjE5JEm-nomMFo2xGV1-1" value="&lt;font face=&quot;Comic Sans MS&quot;&gt;&lt;span style=&quot;font-size: 14px;&quot;&gt;Invalid Username or Password&lt;/span&gt;&lt;/font&gt;" style="rounded=1;whiteSpace=wrap;html=1;arcSize=40;fontColor=#000000;fillColor=#ffffc0;strokeColor=#ff0000;" vertex="1" parent="1">
          <mxGeometry x="80" y="600" width="120" height="40" as="geometry" />
        </mxCell>
        <mxCell id="1NjE5JEm-nomMFo2xGV1-16" style="edgeStyle=orthogonalEdgeStyle;shape=connector;rounded=0;orthogonalLoop=1;jettySize=auto;html=1;exitX=0.5;exitY=1;exitDx=0;exitDy=0;entryX=0.5;entryY=0;entryDx=0;entryDy=0;labelBackgroundColor=default;strokeColor=#ff0000;align=center;verticalAlign=bottom;fontFamily=Helvetica;fontSize=11;fontColor=default;endArrow=open;endSize=8;" edge="1" parent="1" source="1NjE5JEm-nomMFo2xGV1-6" target="1NjE5JEm-nomMFo2xGV1-14">
          <mxGeometry relative="1" as="geometry" />
        </mxCell>
        <mxCell id="1NjE5JEm-nomMFo2xGV1-6" value="&lt;font face=&quot;Comic Sans MS&quot;&gt;&lt;span style=&quot;font-size: 14px;&quot;&gt;Enter a Username&lt;/span&gt;&lt;/font&gt;" style="rounded=1;whiteSpace=wrap;html=1;arcSize=40;fontColor=#000000;fillColor=#ffffc0;strokeColor=#ff0000;" vertex="1" parent="1">
          <mxGeometry x="440" y="440" width="120" height="40" as="geometry" />
        </mxCell>
        <mxCell id="1NjE5JEm-nomMFo2xGV1-11" style="edgeStyle=orthogonalEdgeStyle;shape=connector;rounded=0;orthogonalLoop=1;jettySize=auto;html=1;exitX=0.5;exitY=1;exitDx=0;exitDy=0;entryX=0.5;entryY=0;entryDx=0;entryDy=0;labelBackgroundColor=default;strokeColor=#ff0000;align=center;verticalAlign=bottom;fontFamily=Helvetica;fontSize=11;fontColor=default;endArrow=open;endSize=8;" edge="1" parent="1" target="1NjE5JEm-nomMFo2xGV1-10">
          <mxGeometry relative="1" as="geometry">
            <mxPoint x="500" y="640" as="sourcePoint" />
          </mxGeometry>
        </mxCell>
        <mxCell id="1NjE5JEm-nomMFo2xGV1-8" value="&lt;font face=&quot;Comic Sans MS&quot;&gt;&lt;span style=&quot;font-size: 14px;&quot;&gt;Enter a Password&lt;/span&gt;&lt;/font&gt;" style="rounded=1;whiteSpace=wrap;html=1;arcSize=40;fontColor=#000000;fillColor=#ffffc0;strokeColor=#ff0000;" vertex="1" parent="1">
          <mxGeometry x="440" y="600" width="120" height="40" as="geometry" />
        </mxCell>
        <mxCell id="1NjE5JEm-nomMFo2xGV1-13" style="edgeStyle=orthogonalEdgeStyle;shape=connector;rounded=0;orthogonalLoop=1;jettySize=auto;html=1;exitX=0.5;exitY=1;exitDx=0;exitDy=0;entryX=0.5;entryY=0;entryDx=0;entryDy=0;labelBackgroundColor=default;strokeColor=#ff0000;align=center;verticalAlign=bottom;fontFamily=Helvetica;fontSize=11;fontColor=default;endArrow=open;endSize=8;" edge="1" parent="1" source="1NjE5JEm-nomMFo2xGV1-10">
          <mxGeometry relative="1" as="geometry">
            <mxPoint x="500" y="760" as="targetPoint" />
          </mxGeometry>
        </mxCell>
        <mxCell id="1NjE5JEm-nomMFo2xGV1-10" value="&lt;font face=&quot;Comic Sans MS&quot;&gt;&lt;span style=&quot;font-size: 14px;&quot;&gt;Enter Full Name&lt;/span&gt;&lt;/font&gt;" style="rounded=1;whiteSpace=wrap;html=1;arcSize=40;fontColor=#000000;fillColor=#ffffc0;strokeColor=#ff0000;" vertex="1" parent="1">
          <mxGeometry x="440" y="680" width="120" height="40" as="geometry" />
        </mxCell>
        <mxCell id="1NjE5JEm-nomMFo2xGV1-17" style="edgeStyle=orthogonalEdgeStyle;shape=connector;rounded=0;orthogonalLoop=1;jettySize=auto;html=1;exitX=0.5;exitY=1;exitDx=0;exitDy=0;entryX=0.5;entryY=0;entryDx=0;entryDy=0;labelBackgroundColor=default;strokeColor=#ff0000;align=center;verticalAlign=bottom;fontFamily=Helvetica;fontSize=11;fontColor=default;endArrow=open;endSize=8;" edge="1" parent="1" source="1NjE5JEm-nomMFo2xGV1-14" target="1NjE5JEm-nomMFo2xGV1-8">
          <mxGeometry relative="1" as="geometry" />
        </mxCell>
        <mxCell id="1NjE5JEm-nomMFo2xGV1-24" style="edgeStyle=orthogonalEdgeStyle;shape=connector;rounded=0;orthogonalLoop=1;jettySize=auto;html=1;exitX=1;exitY=0.5;exitDx=0;exitDy=0;labelBackgroundColor=default;strokeColor=#ff0000;align=center;verticalAlign=bottom;fontFamily=Helvetica;fontSize=11;fontColor=default;endArrow=open;endSize=8;" edge="1" parent="1" source="1NjE5JEm-nomMFo2xGV1-14">
          <mxGeometry relative="1" as="geometry">
            <mxPoint x="610" y="540" as="targetPoint" />
          </mxGeometry>
        </mxCell>
        <mxCell id="1NjE5JEm-nomMFo2xGV1-14" value="&lt;font size=&quot;3&quot; face=&quot;Comic Sans MS&quot;&gt;Condition&lt;/font&gt;" style="rhombus;whiteSpace=wrap;html=1;fontColor=#000000;fillColor=#ffffc0;strokeColor=#ff0000;" vertex="1" parent="1">
          <mxGeometry x="450" y="520" width="100" height="40" as="geometry" />
        </mxCell>
        <mxCell id="1NjE5JEm-nomMFo2xGV1-18" value="Success" style="text;html=1;align=center;verticalAlign=middle;resizable=0;points=[];autosize=1;strokeColor=none;fillColor=none;fontSize=11;fontFamily=Helvetica;fontColor=default;" vertex="1" parent="1">
          <mxGeometry x="495" y="558" width="70" height="30" as="geometry" />
        </mxCell>
        <mxCell id="1NjE5JEm-nomMFo2xGV1-26" style="edgeStyle=orthogonalEdgeStyle;shape=connector;rounded=0;orthogonalLoop=1;jettySize=auto;html=1;exitX=0.5;exitY=0;exitDx=0;exitDy=0;labelBackgroundColor=default;strokeColor=#ff0000;align=center;verticalAlign=bottom;fontFamily=Helvetica;fontSize=11;fontColor=default;endArrow=open;endSize=8;entryX=1;entryY=0.5;entryDx=0;entryDy=0;" edge="1" parent="1" source="1NjE5JEm-nomMFo2xGV1-19" target="UncGNPjrXICpwuo8MPwS-2">
          <mxGeometry relative="1" as="geometry">
            <mxPoint x="680" y="160" as="targetPoint" />
            <Array as="points">
              <mxPoint x="680" y="170" />
            </Array>
          </mxGeometry>
        </mxCell>
        <mxCell id="1NjE5JEm-nomMFo2xGV1-19" value="&lt;font face=&quot;Comic Sans MS&quot;&gt;&lt;span style=&quot;font-size: 14px;&quot;&gt;Username Exists&lt;/span&gt;&lt;/font&gt;" style="rounded=1;whiteSpace=wrap;html=1;arcSize=40;fontColor=#000000;fillColor=#ffffc0;strokeColor=#ff0000;" vertex="1" parent="1">
          <mxGeometry x="620" y="518" width="120" height="40" as="geometry" />
        </mxCell>
        <mxCell id="1NjE5JEm-nomMFo2xGV1-25" value="Failure" style="text;html=1;align=center;verticalAlign=middle;resizable=0;points=[];autosize=1;strokeColor=none;fillColor=none;fontSize=11;fontFamily=Helvetica;fontColor=default;" vertex="1" parent="1">
          <mxGeometry x="540" y="508" width="60" height="30" as="geometry" />
        </mxCell>
        <mxCell id="1NjE5JEm-nomMFo2xGV1-30" style="edgeStyle=orthogonalEdgeStyle;shape=connector;rounded=0;orthogonalLoop=1;jettySize=auto;html=1;exitX=0.5;exitY=1;exitDx=0;exitDy=0;entryX=0.5;entryY=0;entryDx=0;entryDy=0;labelBackgroundColor=default;strokeColor=#ff0000;align=center;verticalAlign=bottom;fontFamily=Helvetica;fontSize=11;fontColor=default;endArrow=open;endSize=8;" edge="1" parent="1" source="1NjE5JEm-nomMFo2xGV1-27" target="1NjE5JEm-nomMFo2xGV1-29">
          <mxGeometry relative="1" as="geometry" />
        </mxCell>
        <mxCell id="1NjE5JEm-nomMFo2xGV1-27" value="&lt;font face=&quot;Comic Sans MS&quot;&gt;&lt;span style=&quot;font-size: 14px;&quot;&gt;Enter Phone Number&lt;/span&gt;&lt;/font&gt;" style="rounded=1;whiteSpace=wrap;html=1;arcSize=40;fontColor=#000000;fillColor=#ffffc0;strokeColor=#ff0000;" vertex="1" parent="1">
          <mxGeometry x="440" y="760" width="120" height="40" as="geometry" />
        </mxCell>
        <mxCell id="1NjE5JEm-nomMFo2xGV1-29" value="&lt;font face=&quot;Comic Sans MS&quot;&gt;&lt;span style=&quot;font-size: 14px;&quot;&gt;Registration Done&lt;/span&gt;&lt;/font&gt;" style="rounded=1;whiteSpace=wrap;html=1;arcSize=40;fontColor=#000000;fillColor=#ffffc0;strokeColor=#ff0000;" vertex="1" parent="1">
          <mxGeometry x="440" y="840" width="120" height="40" as="geometry" />
        </mxCell>
        <mxCell id="1NjE5JEm-nomMFo2xGV1-32" value="Failure" style="text;html=1;align=center;verticalAlign=middle;resizable=0;points=[];autosize=1;strokeColor=none;fillColor=none;fontSize=11;fontFamily=Helvetica;fontColor=default;" vertex="1" parent="1">
          <mxGeometry x="220" y="588" width="60" height="30" as="geometry" />
        </mxCell>
        <mxCell id="1NjE5JEm-nomMFo2xGV1-34" value="Success" style="text;html=1;align=center;verticalAlign=middle;resizable=0;points=[];autosize=1;strokeColor=none;fillColor=none;fontSize=11;fontFamily=Helvetica;fontColor=default;" vertex="1" parent="1">
          <mxGeometry x="260" y="650" width="70" height="30" as="geometry" />
        </mxCell>
        <mxCell id="1NjE5JEm-nomMFo2xGV1-39" style="edgeStyle=orthogonalEdgeStyle;shape=connector;rounded=0;orthogonalLoop=1;jettySize=auto;html=1;exitX=0.5;exitY=1;exitDx=0;exitDy=0;entryX=0.5;entryY=0;entryDx=0;entryDy=0;labelBackgroundColor=default;strokeColor=#ff0000;align=center;verticalAlign=bottom;fontFamily=Helvetica;fontSize=11;fontColor=default;endArrow=open;endSize=8;" edge="1" parent="1" source="1NjE5JEm-nomMFo2xGV1-35" target="1NjE5JEm-nomMFo2xGV1-38">
          <mxGeometry relative="1" as="geometry" />
        </mxCell>
        <mxCell id="1NjE5JEm-nomMFo2xGV1-35" value="&lt;font face=&quot;Comic Sans MS&quot;&gt;&lt;span style=&quot;font-size: 14px;&quot;&gt;Login Successful&lt;/span&gt;&lt;/font&gt;" style="rounded=1;whiteSpace=wrap;html=1;arcSize=40;fontColor=#000000;fillColor=#ffffc0;strokeColor=#ff0000;" vertex="1" parent="1">
          <mxGeometry x="280" y="680" width="120" height="40" as="geometry" />
        </mxCell>
        <mxCell id="BvOP8fOKJmTpLjMQO7E1-4" style="edgeStyle=orthogonalEdgeStyle;shape=connector;rounded=0;orthogonalLoop=1;jettySize=auto;html=1;exitX=0.5;exitY=1;exitDx=0;exitDy=0;labelBackgroundColor=default;strokeColor=#ff0000;align=center;verticalAlign=bottom;fontFamily=Helvetica;fontSize=11;fontColor=default;endArrow=open;endSize=8;entryX=0.25;entryY=0.5;entryDx=0;entryDy=0;entryPerimeter=0;" edge="1" parent="1" source="1NjE5JEm-nomMFo2xGV1-38" target="BvOP8fOKJmTpLjMQO7E1-1">
          <mxGeometry relative="1" as="geometry">
            <mxPoint x="340" y="910" as="targetPoint" />
          </mxGeometry>
        </mxCell>
        <mxCell id="1NjE5JEm-nomMFo2xGV1-38" value="&lt;font face=&quot;Comic Sans MS&quot;&gt;&lt;span style=&quot;font-size: 14px;&quot;&gt;Contact Information:&lt;br&gt;Name&lt;br&gt;Phone Number&lt;br&gt;&lt;/span&gt;&lt;/font&gt;" style="rounded=1;whiteSpace=wrap;html=1;arcSize=40;fontColor=#000000;fillColor=#ffffc0;strokeColor=#ff0000;" vertex="1" parent="1">
          <mxGeometry x="280" y="760" width="120" height="80" as="geometry" />
        </mxCell>
        <mxCell id="BvOP8fOKJmTpLjMQO7E1-1" value="" style="shape=line;html=1;strokeWidth=6;strokeColor=#ff0000;" vertex="1" parent="1">
          <mxGeometry x="270" y="920" width="290" height="10" as="geometry" />
        </mxCell>
        <mxCell id="BvOP8fOKJmTpLjMQO7E1-3" style="edgeStyle=orthogonalEdgeStyle;shape=connector;rounded=0;orthogonalLoop=1;jettySize=auto;html=1;exitX=0.5;exitY=1;exitDx=0;exitDy=0;entryX=0.792;entryY=0.44;entryDx=0;entryDy=0;entryPerimeter=0;labelBackgroundColor=default;strokeColor=#ff0000;align=center;verticalAlign=bottom;fontFamily=Helvetica;fontSize=11;fontColor=default;endArrow=open;endSize=8;" edge="1" parent="1" source="1NjE5JEm-nomMFo2xGV1-29" target="BvOP8fOKJmTpLjMQO7E1-1">
          <mxGeometry relative="1" as="geometry" />
        </mxCell>
        <mxCell id="cTdECk59ybZvS4y-WJOm-2" value="" style="ellipse;html=1;shape=endState;fillColor=#000000;strokeColor=#ff0000;fontFamily=Helvetica;fontSize=11;fontColor=default;" vertex="1" parent="1">
          <mxGeometry x="375" y="1010" width="50" height="50" as="geometry" />
        </mxCell>
        <mxCell id="cTdECk59ybZvS4y-WJOm-5" style="edgeStyle=orthogonalEdgeStyle;shape=connector;rounded=0;orthogonalLoop=1;jettySize=auto;html=1;exitX=0.5;exitY=1;exitDx=0;exitDy=0;labelBackgroundColor=default;strokeColor=#ff0000;align=center;verticalAlign=bottom;fontFamily=Helvetica;fontSize=11;fontColor=default;endArrow=open;endSize=8;entryX=0.5;entryY=0;entryDx=0;entryDy=0;" edge="1" parent="1" target="cTdECk59ybZvS4y-WJOm-2">
          <mxGeometry relative="1" as="geometry">
            <mxPoint x="400" y="970" as="targetPoint" />
            <mxPoint x="400" y="930" as="sourcePoint" />
          </mxGeometry>
        </mxCell>
        <mxCell id="cTdECk59ybZvS4y-WJOm-8" style="edgeStyle=orthogonalEdgeStyle;shape=connector;rounded=0;orthogonalLoop=1;jettySize=auto;html=1;exitX=0.5;exitY=1;exitDx=0;exitDy=0;entryX=0.5;entryY=0;entryDx=0;entryDy=0;labelBackgroundColor=default;strokeColor=#ff0000;align=center;verticalAlign=bottom;fontFamily=Helvetica;fontSize=11;fontColor=default;endArrow=open;endSize=8;" edge="1" parent="1" source="cTdECk59ybZvS4y-WJOm-6" target="UncGNPjrXICpwuo8MPwS-2">
          <mxGeometry relative="1" as="geometry" />
        </mxCell>
        <mxCell id="cTdECk59ybZvS4y-WJOm-6" value="" style="ellipse;html=1;shape=startState;fillColor=#000000;strokeColor=#ff0000;fontFamily=Helvetica;fontSize=11;fontColor=default;" vertex="1" parent="1">
          <mxGeometry x="395" y="30" width="50" height="50" as="geometry" />
        </mxCell>
        <mxCell id="cTdECk59ybZvS4y-WJOm-9" value="Start" style="text;html=1;align=center;verticalAlign=middle;resizable=0;points=[];autosize=1;strokeColor=none;fillColor=none;fontSize=11;fontFamily=Helvetica;fontColor=default;" vertex="1" parent="1">
          <mxGeometry x="440" y="60" width="50" height="30" as="geometry" />
        </mxCell>
        <mxCell id="cTdECk59ybZvS4y-WJOm-11" value="End" style="text;html=1;align=center;verticalAlign=middle;resizable=0;points=[];autosize=1;strokeColor=none;fillColor=none;fontSize=11;fontFamily=Helvetica;fontColor=default;" vertex="1" parent="1">
          <mxGeometry x="430" y="1020" width="40" height="30" as="geometry" />
        </mxCell>
      </root>
    </mxGraphModel>
  </diagram>
</mxfile>
